<mxfile host="app.diagrams.net" modified="2023-03-10T04:16:04.920Z" agent="5.0 (Windows NT 10.0; Win64; x64) AppleWebKit/537.36 (KHTML, like Gecko) Chrome/110.0.0.0 Safari/537.36 Edg/110.0.1587.63" etag="4PrJD4YgzFhEHcT5EmZx" version="21.0.6" type="github">
  <diagram name="第 1 页" id="dUYZRemFPjw9A8tukhti">
    <mxGraphModel dx="2027" dy="1147" grid="1" gridSize="10" guides="1" tooltips="1" connect="1" arrows="1" fold="1" page="1" pageScale="1" pageWidth="827" pageHeight="1169" math="0" shadow="0">
      <root>
        <mxCell id="0" />
        <mxCell id="1" parent="0" />
        <mxCell id="UIXmV_qNZIIoh8UtV4tK-1" value="" style="rounded=0;whiteSpace=wrap;html=1;" vertex="1" parent="1">
          <mxGeometry x="120" y="200" width="280" height="640" as="geometry" />
        </mxCell>
        <mxCell id="UIXmV_qNZIIoh8UtV4tK-2" value="&lt;font style=&quot;font-size: 18px;&quot;&gt;VM Header:&lt;br&gt;Machine Type, Version id, ...&lt;/font&gt;" style="rounded=0;whiteSpace=wrap;html=1;fillColor=#CCCCCC;" vertex="1" parent="1">
          <mxGeometry x="120" y="200" width="280" height="80" as="geometry" />
        </mxCell>
        <mxCell id="UIXmV_qNZIIoh8UtV4tK-3" value="&lt;font style=&quot;font-size: 18px;&quot;&gt;VM Setup: Device Meta&lt;br&gt;&lt;/font&gt;" style="rounded=0;whiteSpace=wrap;html=1;fillColor=#FFF4C3;" vertex="1" parent="1">
          <mxGeometry x="120" y="280" width="280" height="71" as="geometry" />
        </mxCell>
        <mxCell id="UIXmV_qNZIIoh8UtV4tK-4" value="" style="rounded=0;whiteSpace=wrap;html=1;fillColor=#E6FFCC;" vertex="1" parent="1">
          <mxGeometry x="120" y="351" width="280" height="430" as="geometry" />
        </mxCell>
        <mxCell id="UIXmV_qNZIIoh8UtV4tK-5" value="&lt;font style=&quot;font-size: 18px;&quot;&gt;Pre-copy: Iterations&lt;/font&gt;" style="text;html=1;strokeColor=none;fillColor=none;align=center;verticalAlign=middle;whiteSpace=wrap;rounded=0;" vertex="1" parent="1">
          <mxGeometry x="120" y="351" width="280" height="40" as="geometry" />
        </mxCell>
        <mxCell id="UIXmV_qNZIIoh8UtV4tK-6" value="" style="rounded=0;whiteSpace=wrap;html=1;fillColor=#FFCCCC;" vertex="1" parent="1">
          <mxGeometry x="140" y="391" width="240" height="370" as="geometry" />
        </mxCell>
        <mxCell id="UIXmV_qNZIIoh8UtV4tK-7" value="&lt;font style=&quot;font-size: 18px;&quot;&gt;Offset&lt;/font&gt;" style="rounded=0;whiteSpace=wrap;html=1;" vertex="1" parent="1">
          <mxGeometry x="160" y="431" width="100" height="40" as="geometry" />
        </mxCell>
        <mxCell id="UIXmV_qNZIIoh8UtV4tK-8" value="&lt;font style=&quot;font-size: 18px;&quot;&gt;Content&lt;/font&gt;" style="rounded=0;whiteSpace=wrap;html=1;" vertex="1" parent="1">
          <mxGeometry x="260" y="431" width="100" height="40" as="geometry" />
        </mxCell>
        <mxCell id="UIXmV_qNZIIoh8UtV4tK-9" value="&lt;font style=&quot;font-size: 18px;&quot;&gt;RAM Device&lt;/font&gt;" style="text;html=1;strokeColor=none;fillColor=none;align=center;verticalAlign=middle;whiteSpace=wrap;rounded=0;" vertex="1" parent="1">
          <mxGeometry x="140" y="391" width="240" height="40" as="geometry" />
        </mxCell>
        <mxCell id="UIXmV_qNZIIoh8UtV4tK-10" value="&lt;font style=&quot;font-size: 18px;&quot;&gt;Offset&lt;/font&gt;" style="rounded=0;whiteSpace=wrap;html=1;fillColor=#CCFFFF;" vertex="1" parent="1">
          <mxGeometry x="160" y="491" width="100" height="40" as="geometry" />
        </mxCell>
        <mxCell id="UIXmV_qNZIIoh8UtV4tK-11" value="&lt;font style=&quot;font-size: 18px;&quot;&gt;Content&lt;/font&gt;" style="rounded=0;whiteSpace=wrap;html=1;fillColor=#CCFFFF;" vertex="1" parent="1">
          <mxGeometry x="260" y="491" width="100" height="40" as="geometry" />
        </mxCell>
        <mxCell id="UIXmV_qNZIIoh8UtV4tK-12" value="&lt;font style=&quot;font-size: 18px;&quot;&gt;......&lt;/font&gt;" style="text;html=1;strokeColor=none;fillColor=none;align=center;verticalAlign=middle;whiteSpace=wrap;rounded=0;" vertex="1" parent="1">
          <mxGeometry x="230" y="531" width="60" height="20" as="geometry" />
        </mxCell>
        <mxCell id="UIXmV_qNZIIoh8UtV4tK-13" value="&lt;font style=&quot;font-size: 18px;&quot;&gt;Offset&lt;/font&gt;" style="rounded=0;whiteSpace=wrap;html=1;fillColor=#CCFFFF;" vertex="1" parent="1">
          <mxGeometry x="160" y="701" width="100" height="40" as="geometry" />
        </mxCell>
        <mxCell id="UIXmV_qNZIIoh8UtV4tK-14" value="&lt;font style=&quot;font-size: 18px;&quot;&gt;Content&lt;/font&gt;" style="rounded=0;whiteSpace=wrap;html=1;fillColor=#CCFFFF;" vertex="1" parent="1">
          <mxGeometry x="260" y="701" width="100" height="40" as="geometry" />
        </mxCell>
        <mxCell id="UIXmV_qNZIIoh8UtV4tK-15" value="&lt;font style=&quot;font-size: 18px;&quot;&gt;VM State: Cpu states&lt;/font&gt;" style="rounded=0;whiteSpace=wrap;html=1;fillColor=#9AC7BF;" vertex="1" parent="1">
          <mxGeometry x="120" y="780" width="280" height="60" as="geometry" />
        </mxCell>
        <mxCell id="UIXmV_qNZIIoh8UtV4tK-19" value="Backup Image" style="text;html=1;strokeColor=default;fillColor=#D4E1F5;align=center;verticalAlign=middle;whiteSpace=wrap;rounded=0;fontSize=18;" vertex="1" parent="1">
          <mxGeometry x="180" y="160" width="160" height="40" as="geometry" />
        </mxCell>
        <mxCell id="UIXmV_qNZIIoh8UtV4tK-20" value="&lt;font style=&quot;font-size: 18px;&quot;&gt;Offset&lt;/font&gt;" style="rounded=0;whiteSpace=wrap;html=1;" vertex="1" parent="1">
          <mxGeometry x="160" y="561" width="100" height="40" as="geometry" />
        </mxCell>
        <mxCell id="UIXmV_qNZIIoh8UtV4tK-21" value="&lt;font style=&quot;font-size: 18px;&quot;&gt;Content&lt;/font&gt;" style="rounded=0;whiteSpace=wrap;html=1;" vertex="1" parent="1">
          <mxGeometry x="260" y="561" width="100" height="40" as="geometry" />
        </mxCell>
        <mxCell id="UIXmV_qNZIIoh8UtV4tK-22" value="&lt;font style=&quot;font-size: 18px;&quot;&gt;Offset&lt;/font&gt;" style="rounded=0;whiteSpace=wrap;html=1;fillColor=#CCFFFF;" vertex="1" parent="1">
          <mxGeometry x="160" y="631" width="100" height="40" as="geometry" />
        </mxCell>
        <mxCell id="UIXmV_qNZIIoh8UtV4tK-23" value="&lt;font style=&quot;font-size: 18px;&quot;&gt;Content&lt;/font&gt;" style="rounded=0;whiteSpace=wrap;html=1;fillColor=#CCFFFF;" vertex="1" parent="1">
          <mxGeometry x="260" y="631" width="100" height="40" as="geometry" />
        </mxCell>
      </root>
    </mxGraphModel>
  </diagram>
</mxfile>
